<?xml version="1.0" encoding="utf-8"?>
<!-- Generator: Adobe Illustrator 27.6.1, SVG Export Plug-In . SVG Version: 6.00 Build 0)  -->
<svg version="1.1" id="Livello_1" xmlns="http://www.w3.org/2000/svg" xmlns:xlink="http://www.w3.org/1999/xlink" x="0px" y="0px"
	 viewBox="0 0 1441 579.7" style="enable-background:new 0 0 1441 579.7;" xml:space="preserve">
<style type="text/css">
	.st0{fill:#DFAF5A;}
	.st1{fill:#9C7C40;}
	.st2{fill:#FCC464;}
	.st3{fill:#B1A79B;}
	.st4{fill:#99876D;}
	.st5{fill:#FCDBAF;}
	.st6{fill:#A26965;}
	.st7{fill:#FAC8AB;}
	.st8{fill:#7D5A63;}
	.st9{fill:#F18B6A;}
	.st10{fill:#F1AD4C;}
	.st11{fill:#8EBF22;}
	.st12{fill:#E49D92;}
	.st13{fill:#7D9FAC;}
	.st14{fill:#50666E;}
	.st15{fill:#E4D3E9;stroke:#3E2D37;stroke-width:11;stroke-miterlimit:10;}
	.st16{fill:#DAC2DF;stroke:#756E78;stroke-width:11;stroke-miterlimit:10;}
	.st17{fill:#937985;}
	.st18{fill:#AF8EA4;}
	.st19{fill:#A57683;}
	.st20{fill:#2D2B28;}
	.st21{fill:#4C4846;}
	.st22{fill:#34322F;}
	.st23{fill:#5C5755;}
	.st24{fill:#B294C5;}
	.st25{fill:#7C6889;}
	.st26{opacity:0.57;fill:#49333D;enable-background:new    ;}
	.st27{fill:#9D707C;}
	.st28{fill:#816B75;}
	.st29{fill:none;stroke:#615348;stroke-width:5;stroke-miterlimit:10;}
	.st30{fill:#8B4F3D;}
	.st31{fill:#D97960;}
	.st32{opacity:0.47;}
	.st33{fill:#FFFCE6;}
	.st34{fill:#6C476D;}
	.st35{fill:#9C8990;}
	.st36{fill:#855886;}
	.st37{fill:#A79089;}
	.st38{fill:#A36BA5;}
	.st39{fill:#C2ADA8;}
	.st40{font-family:'SFMonoNerdFontComplete-Bold';}
	.st41{font-size:37.4863px;}
</style>
<g id="Mac">
	<path class="st0" d="M734.2,357.9h117.1c8,0,14.4,6.5,14.4,14.4v163.5c0,8-6.5,14.4-14.4,14.4H734.2c-8,0-14.4-6.5-14.4-14.4V372.3
		C719.8,364.3,726.2,357.9,734.2,357.9z"/>
	<path class="st1" d="M504.9,38.6h575.6c8,0,14.4,6.5,14.4,14.4v398.4c0,8-6.5,14.4-14.4,14.4H504.9c-8,0-14.4-6.5-14.4-14.4V53
		C490.5,45.1,497,38.6,504.9,38.6z"/>
	<path class="st2" d="M504.9,26.8h575.6c8,0,14.4,6.5,14.4,14.4v398.4c0,8-6.5,14.4-14.4,14.4H504.9c-8,0-14.4-6.5-14.4-14.4V41.3
		C490.5,33.3,497,26.8,504.9,26.8z"/>
	<path class="st3" d="M506.5,37.7H1079c2.9,0,5.2,2.3,5.2,5.2v343.7c0,2.9-2.3,5.2-5.2,5.2H506.5c-2.9,0-5.2-2.3-5.2-5.2V42.9
		C501.3,40,503.7,37.7,506.5,37.7z"/>
</g>
<g id="NUVOLA">
	<path class="st4" d="M514.3,57.8c-0.9-25.4-21.8-45.6-47.3-45.6c-19.4,0-36.2,11.7-43.5,28.5c-3.8-3.5-8.8-5.6-14.3-5.6
		c-11.7,0-21.1,9.4-21.1,21.1c0,0.6,0,1.2,0.1,1.8C375.3,62.4,366,74.7,366,89.1l0,0c0,18.1,14.7,32.9,32.9,32.9h105
		c18.1,0,32.9-14.7,32.9-32.9l0,0C536.7,74.5,527.3,62.2,514.3,57.8L514.3,57.8z"/>
	<path class="st5" d="M512.1,47.7c-0.9-25.4-21.8-45.6-47.3-45.6c-19.4,0-36.2,11.7-43.5,28.5c-3.8-3.5-8.8-5.6-14.3-5.6
		c-11.7,0-21.1,9.4-21.1,21.1c0,0.6,0,1.2,0.1,1.8c-12.9,4.4-22.2,16.7-22.2,31.1l0,0c0,18.1,14.7,32.9,32.9,32.9h105
		c18.1,0,32.9-14.7,32.9-32.9l0,0C534.6,64.4,525.2,52.1,512.1,47.7L512.1,47.7z"/>
</g>
<g id="Livello_3">
	<path class="st6" d="M14.4,170.2H533c8,0,14.4,6.5,14.4,14.4v358c0,8-6.5,14.4-14.4,14.4H14.4c-8,0-14.4-6.5-14.4-14.4v-358
		C0,176.6,6.4,170.2,14.4,170.2z"/>
	<path class="st7" d="M14.4,157.3H533c8,0,14.4,6.5,14.4,14.4v358c0,8-6.5,14.4-14.4,14.4H14.4c-8,0-14.4-6.5-14.4-14.4v-358
		C0,163.8,6.4,157.3,14.4,157.3z"/>
	<path class="st8" d="M165.7,176.3h227.1c8,0,14.4,6.5,14.4,14.4v4c0,8-6.5,14.4-14.4,14.4H165.7c-8,0-14.4-6.5-14.4-14.4v-4
		C151.3,182.7,157.8,176.3,165.7,176.3z"/>
	<circle class="st9" cx="31.2" cy="192.7" r="11.9"/>
	<circle class="st10" cx="67.2" cy="192.7" r="11.9"/>
	<circle class="st11" cx="103.1" cy="192.7" r="11.9"/>
	<path class="st12" d="M71.8,263.5h93c4.5,0,8.2,3.7,8.2,8.2v58c0,4.5-3.7,8.2-8.2,8.2h-93c-4.5,0-8.2-3.7-8.2-8.2v-58
		C63.5,267.2,67.2,263.5,71.8,263.5z"/>
	<path class="st12" d="M227.1,263.5h244.3c4.5,0,8.2,3.7,8.2,8.2l0,0c0,4.5-3.7,8.2-8.2,8.2H227.1c-4.5,0-8.2-3.7-8.2-8.2l0,0
		C218.9,267.2,222.6,263.5,227.1,263.5z"/>
	<path class="st12" d="M227.1,318.1h244.3c4.5,0,8.2,3.7,8.2,8.2l0,0c0,4.5-3.7,8.2-8.2,8.2H227.1c-4.5,0-8.2-3.7-8.2-8.2l0,0
		C218.9,321.8,222.6,318.1,227.1,318.1z"/>
	<path class="st12" d="M69.1,372.7h243.2c4.5,0,8.2,3.7,8.2,8.2l0,0c0,4.5-3.7,8.2-8.2,8.2H69.1c-4.5,0-8.2-3.7-8.2-8.2l0,0
		C60.9,376.4,64.6,372.7,69.1,372.7z"/>
	<path class="st12" d="M378.5,373.4h93c4.5,0,8.2,3.7,8.2,8.2v93c0,4.5-3.7,8.2-8.2,8.2h-93c-4.5,0-8.2-3.7-8.2-8.2v-93
		C370.3,377,373.9,373.4,378.5,373.4z"/>
	<path class="st12" d="M69.1,419.9h243.2c4.5,0,8.2,3.7,8.2,8.2l0,0c0,4.5-3.7,8.2-8.2,8.2H69.1c-4.5,0-8.2-3.7-8.2-8.2l0,0
		C60.9,423.5,64.6,419.9,69.1,419.9z"/>
	<path class="st12" d="M69.1,467h243.2c4.5,0,8.2,3.7,8.2,8.2l0,0c0,4.5-3.7,8.2-8.2,8.2H69.1c-4.5,0-8.2-3.7-8.2-8.2l0,0
		C60.9,470.7,64.6,467,69.1,467z"/>
	<path class="st8" d="M501,180.9L501,180.9c9.3,0,16.9,7.6,16.9,16.9l0,0c0,9.3-7.6,16.9-16.9,16.9l0,0c-9.3,0-16.9-7.6-16.9-16.9
		l0,0C484.1,188.5,491.7,180.9,501,180.9z"/>
	<path class="st8" d="M499.8,164.8h2.5c1.6,0,3,1.3,3,3v6.8c0,1.6-1.3,3-3,3h-2.5c-1.6,0-3-1.3-3-3v-6.8
		C496.8,166.1,498.2,164.8,499.8,164.8z"/>
	<path class="st8" d="M498.2,218.1h2.5c1.6,0,3,1.3,3,3v7.5c0,1.6-1.3,3-3,3h-2.5c-1.6,0-3-1.3-3-3v-7.5
		C495.2,219.5,496.5,218.1,498.2,218.1z"/>
	<path class="st8" d="M467.1,199.1v-2.5c0-1.6,1.3-3,3-3h8.6c1.6,0,3,1.3,3,3v2.5c0,1.6-1.3,3-3,3h-8.6
		C468.5,202.1,467.1,200.7,467.1,199.1z"/>
	<path class="st8" d="M522.3,199.1v-2.5c0-1.6,1.3-3,3-3h8.4c1.6,0,3,1.3,3,3v2.5c0,1.6-1.3,3-3,3h-8.4
		C523.6,202.1,522.3,200.7,522.3,199.1z"/>
	<path class="st8" d="M474.8,174.9l1.8-1.8c1.2-1.2,3.1-1.2,4.2,0l5.8,5.8c1.2,1.2,1.2,3.1,0,4.2l-1.8,1.8c-1.2,1.2-3.1,1.2-4.2,0
		l-5.8-5.8C473.7,177.9,473.7,176,474.8,174.9z"/>
	<path class="st8" d="M476.6,221.7l-1.8-1.8c-1.2-1.2-1.2-3.1,0-4.2l5.7-5.7c1.2-1.2,3.1-1.2,4.2,0l1.8,1.8c1.2,1.2,1.2,3.1,0,4.2
		l-5.7,5.7C479.7,222.9,477.8,222.9,476.6,221.7z"/>
	<path class="st8" d="M516.7,185.5l-1.8-1.8c-1.2-1.2-1.2-3.1,0-4.2l5.4-5.4c1.2-1.2,3.1-1.2,4.2,0l1.8,1.8c1.2,1.2,1.2,3.1,0,4.2
		l-5.4,5.4C519.8,186.7,517.9,186.7,516.7,185.5z"/>
</g>
<g id="windows">
	<path class="st13" d="M1132.7,76.2h50.6c6.7,0,12.1,5.4,12.1,12.1V139c0,6.7-5.4,12.1-12.1,12.1h-50.6c-6.7,0-12.1-5.4-12.1-12.1
		V88.4C1120.6,81.7,1126,76.2,1132.7,76.2z"/>
	<path class="st13" d="M1212.6,76.2h50.6c6.7,0,12.1,5.4,12.1,12.1V139c0,6.7-5.4,12.1-12.1,12.1h-50.6c-6.7,0-12.1-5.4-12.1-12.1
		V88.4C1200.5,81.7,1205.9,76.2,1212.6,76.2z"/>
	<path class="st14" d="M1132.7,156.1h50.6c6.7,0,12.1,5.4,12.1,12.1v50.6c0,6.7-5.4,12.1-12.1,12.1h-50.6c-6.7,0-12.1-5.4-12.1-12.1
		v-50.6C1120.6,161.5,1126,156.1,1132.7,156.1z"/>
	<path class="st14" d="M1212.6,156.1h50.6c6.7,0,12.1,5.4,12.1,12.1v50.6c0,6.7-5.4,12.1-12.1,12.1h-50.6c-6.7,0-12.1-5.4-12.1-12.1
		v-50.6C1200.5,161.5,1205.9,156.1,1212.6,156.1z"/>
	<path class="st13" d="M1132.7,156.1h50.6c6.7,0,12.1,5.4,12.1,12.1v42.5c0,6.7-5.4,12.1-12.1,12.1h-50.6c-6.7,0-12.1-5.4-12.1-12.1
		v-42.5C1120.6,161.5,1126,156.1,1132.7,156.1z"/>
	<path class="st13" d="M1212.6,156.1h50.6c6.7,0,12.1,5.4,12.1,12.1v42.5c0,6.7-5.4,12.1-12.1,12.1h-50.6c-6.7,0-12.1-5.4-12.1-12.1
		v-42.5C1200.5,161.5,1205.9,156.1,1212.6,156.1z"/>
</g>
<g id="Livello_19">
	<path class="st15" d="M1078.2,540.6V300c0-16.7,13.6-30.3,30.3-30.3h296.8c16.7,0,30.3,13.6,30.3,30.3v240.6
		c0,16.7-13.6,30.3-30.3,30.3h-296.8C1091.7,570.9,1078.2,557.4,1078.2,540.6z"/>
	<path class="st16" d="M1078.2,529.1V288.5c0-16.7,13.6-30.3,30.3-30.3h296.8c16.7,0,30.3,13.6,30.3,30.3v240.6
		c0,16.7-13.6,30.3-30.3,30.3h-296.8C1091.7,559.4,1078.2,545.9,1078.2,529.1z"/>
	<path class="st17" d="M1294.9,404.5L1294.9,404.5c6,0,10.9,4.9,10.9,10.9V519c0,6-4.9,10.9-10.9,10.9l0,0c-6,0-10.9-4.9-10.9-10.9
		V415.3C1284.1,409.3,1289,404.5,1294.9,404.5z"/>
	<path class="st18" d="M1335.2,372.4L1335.2,372.4c6,0,10.9,4.9,10.9,10.9V519c0,6-4.9,10.9-10.9,10.9l0,0c-6,0-10.9-4.9-10.9-10.9
		V383.3C1324.4,377.3,1329.2,372.4,1335.2,372.4z"/>
	<path class="st19" d="M1377.7,440.6L1377.7,440.6c6,0,10.9,4.9,10.9,10.9V519c0,6-4.9,10.9-10.9,10.9l0,0c-6,0-10.9-4.9-10.9-10.9
		v-67.6C1366.8,445.4,1371.7,440.6,1377.7,440.6z"/>
	<g id="Livello_5">
		<path class="st20" d="M570.4,103.9h212.7c8,0,14.4,6.5,14.4,14.4v236.9c0,8-6.5,14.4-14.4,14.4H570.4c-8,0-14.4-6.5-14.4-14.4
			V118.3C555.9,110.4,562.4,103.9,570.4,103.9z"/>
		<path class="st21" d="M570.4,92h212.7c8,0,14.4,6.5,14.4,14.4v236.9c0,8-6.5,14.4-14.4,14.4H570.4c-8,0-14.4-6.5-14.4-14.4V106.4
			C555.9,98.5,562.4,92,570.4,92z"/>
		<path class="st22" d="M852,206.6h174c8,0,14.4,6.5,14.4,14.4v134.2c0,8-6.5,14.4-14.4,14.4H852c-8,0-14.4-6.5-14.4-14.4V221
			C837.6,213,844.1,206.6,852,206.6z"/>
		<path class="st23" d="M852,198.4h174c8,0,14.4,6.5,14.4,14.4v130.6c0,8-6.5,14.4-14.4,14.4H852c-8,0-14.4-6.5-14.4-14.4V212.8
			C837.6,204.9,844.1,198.4,852,198.4z"/>
		<path class="st24" d="M858.5,226.4h14.3c2.4,0,4.3,1.9,4.3,4.3l0,0c0,2.4-1.9,4.3-4.3,4.3h-14.3c-2.4,0-4.3-1.9-4.3-4.3l0,0
			C854.2,228.3,856.1,226.4,858.5,226.4z"/>
		<path class="st24" d="M902,226.7h117.5c2.4,0,4.3,1.9,4.3,4.3l0,0c0,2.4-1.9,4.3-4.3,4.3H902c-2.4,0-4.3-1.9-4.3-4.3l0,0
			C897.7,228.6,899.7,226.7,902,226.7z"/>
		<path class="st24" d="M902,258.2h117.5c2.4,0,4.3,1.9,4.3,4.3l0,0c0,2.4-1.9,4.3-4.3,4.3H902c-2.4,0-4.3-1.9-4.3-4.3l0,0
			C897.7,260.1,899.7,258.2,902,258.2z"/>
		<path class="st24" d="M902,289.8h117.5c2.4,0,4.3,1.9,4.3,4.3l0,0c0,2.4-1.9,4.3-4.3,4.3H902c-2.4,0-4.3-1.9-4.3-4.3l0,0
			C897.7,291.7,899.7,289.8,902,289.8z"/>
		<path class="st25" d="M604.6,105.1h136.7c3.7,0,6.7,3,6.7,6.7l0,0c0,3.7-3,6.7-6.7,6.7H604.6c-3.7,0-6.7-3-6.7-6.7l0,0
			C598,108.1,600.9,105.1,604.6,105.1z"/>
		<path class="st24" d="M902,321.3h117.5c2.4,0,4.3,1.9,4.3,4.3l0,0c0,2.4-1.9,4.3-4.3,4.3H902c-2.4,0-4.3-1.9-4.3-4.3l0,0
			C897.7,323.2,899.7,321.3,902,321.3z"/>
		<path class="st26" d="M1124.6,434.6h107.8c2.4,0,4.3,1.9,4.3,4.3l0,0c0,2.4-1.9,4.3-4.3,4.3h-107.8c-2.4,0-4.3-1.9-4.3-4.3l0,0
			C1120.3,436.5,1122.2,434.6,1124.6,434.6z"/>
		<path class="st26" d="M1124.6,461.9h107.8c2.4,0,4.3,1.9,4.3,4.3l0,0c0,2.4-1.9,4.3-4.3,4.3h-107.8c-2.4,0-4.3-1.9-4.3-4.3l0,0
			C1120.3,463.8,1122.2,461.9,1124.6,461.9z"/>
		<path class="st26" d="M1124.6,489.9h107.8c2.4,0,4.3,1.9,4.3,4.3l0,0c0,2.4-1.9,4.3-4.3,4.3h-107.8c-2.4,0-4.3-1.9-4.3-4.3l0,0
			C1120.3,491.8,1122.2,489.9,1124.6,489.9z"/>
		<path class="st26" d="M1124.6,517.9h107.8c2.4,0,4.3,1.9,4.3,4.3l0,0c0,2.4-1.9,4.3-4.3,4.3h-107.8c-2.4,0-4.3-1.9-4.3-4.3l0,0
			C1120.3,519.8,1122.2,517.9,1124.6,517.9z"/>
		<path class="st26" d="M1281.3,290.4h107.8c2.4,0,4.3,1.9,4.3,4.3l0,0c0,2.4-1.9,4.3-4.3,4.3h-107.8c-2.4,0-4.3-1.9-4.3-4.3l0,0
			C1277,292.4,1279,290.4,1281.3,290.4z"/>
		<path class="st26" d="M1281.3,318.4h107.8c2.4,0,4.3,1.9,4.3,4.3l0,0c0,2.4-1.9,4.3-4.3,4.3h-107.8c-2.4,0-4.3-1.9-4.3-4.3l0,0
			C1277,320.3,1279,318.4,1281.3,318.4z"/>
		<path class="st26" d="M1281.3,346.4h107.8c2.4,0,4.3,1.9,4.3,4.3l0,0c0,2.4-1.9,4.3-4.3,4.3h-107.8c-2.4,0-4.3-1.9-4.3-4.3l0,0
			C1277,348.3,1279,346.4,1281.3,346.4z"/>
	</g>
	<circle class="st18" cx="1178.5" cy="346.4" r="48.7"/>
	<path class="st27" d="M1175.9,297.8c-7.7,0.4-14.9,2.6-21.2,6.1l23.8,42.5l28.2-39.7C1198,300.6,1187.3,297.2,1175.9,297.8
		L1175.9,297.8z"/>
	<path class="st28" d="M1154.7,304c-15.6,8.8-25.8,25.9-24.8,45c0.7,14.1,7.4,26.4,17.5,34.8l31.1-37.4L1154.7,304L1154.7,304z"/>
</g>
<g id="tazza">
	<path class="st29" d="M505.6,493.4h12c5.6,0,10.1,4.5,10.1,10.1v29.1c0,5.6-4.5,10.1-10.1,10.1h-12c-5.6,0-10.1-4.5-10.1-10.1
		v-29.1C495.5,498,500,493.4,505.6,493.4z"/>
	<path class="st30" d="M531.4,469.9h72.1c7.1,0,12.9,5.8,12.9,12.9v84.1c0,7.1-5.8,12.9-12.9,12.9h-72.1c-7.1,0-12.9-5.8-12.9-12.9
		v-84.1C518.6,475.6,524.3,469.9,531.4,469.9z"/>
	<path class="st31" d="M531.4,460.1h72.1c7.1,0,12.9,5.8,12.9,12.9v80.6c0,7.1-5.8,12.9-12.9,12.9h-72.1c-7.1,0-12.9-5.8-12.9-12.9
		V473C518.6,465.9,524.3,460.1,531.4,460.1z"/>
	<g class="st32">
		<path class="st33" d="M572.1,368.5c-3.1,9.6-12.5,30.6-4.1,38.2c1.1,1,2.8,1.8,4.8,3.1c3.1,1.8,6.2,5.4,7.4,9
			c0.5,1.3,0.8,2.9,0.7,4.3c-0.9,12.9-14.1,23.4-21.6,32.8c1.8-8.3,6.7-15.6,10.4-23c1.5-3,3.4-6.8,3.4-9.9
			c-0.5-5.9-5.9-7.3-10-11.2C551.8,399.7,564.3,379.3,572.1,368.5L572.1,368.5L572.1,368.5z"/>
	</g>
	<g class="st32">
		<path class="st33" d="M572.1,368.5c-2.8,7.9-6.3,15.6-9.1,23.2c-3,8-3.5,12.4,5.1,17.1c20,12.2,1.5,35-8.7,47.3
			c1.9-10.1,7.3-19.2,9.5-29c1.2-5.2-0.6-9.1-5.1-12c-3.7-2.2-8.2-6.7-8.9-11.5c-0.9-5.4,1.3-9.4,3.4-13.8
			C562.4,382.1,567.1,375.3,572.1,368.5L572.1,368.5L572.1,368.5z"/>
	</g>
</g>
<g id="Livello_2_00000125591849901423355120000016568697800743574201_">
	<path class="st34" d="M609.8,326l-21.9-27.9l19.4-15.2c6.1-4.8,4.8-15.1-2.6-19.7L517.2,208c-9.3-5.8-19.4,2.1-15.9,12.5l32.6,98.2
		c2.7,8.2,12.4,12,18.5,7.2l15.5-12.1l21.9,27.9c3.6,4.5,10.2,5.4,14.7,1.8l3.6-2.8C612.5,337.2,613.3,330.6,609.8,326L609.8,326z"
		/>
	<path class="st35" d="M609.4,321l-24.8-31.7l20.3-15.9c6.2-4.8,4.9-15.2-2.5-19.8l-87.9-55c-9.3-5.8-19.5,2.2-16.1,12.6l32.3,98.5
		c2.7,8.2,12.4,12,18.6,7.2l17.5-13.7l24.8,31.7c3.2,4,9,4.7,13,1.6l3.2-2.5C611.8,330.9,612.5,325.1,609.4,321L609.4,321z"/>
	<path class="st36" d="M670.7,340.4l31-24.2c3.4-2.7,2.7-8.5-1.5-11.1L650.9,274c-5.2-3.3-10.9,1.2-9,7l18.4,55.3
		C661.8,341,667.3,343.1,670.7,340.4L670.7,340.4z"/>
	<path class="st36" d="M673.5,314.3L673.5,314.3c3.1-2.4,7.6-1.9,10.1,1.2l18.7,23.8c2.4,3.1,1.9,7.6-1.2,10.1l0,0
		c-3.1,2.4-7.6,1.9-10.1-1.2l-18.7-23.8C669.9,321.3,670.4,316.8,673.5,314.3z"/>
	<path class="st37" d="M669,335.3l31.3-24.5c3.5-2.7,2.7-8.5-1.4-11.1l-49.5-30.9c-5.2-3.3-11,1.2-9.1,7.1l18.2,55.4
		C660.1,336,665.5,338.1,669,335.3z"/>
	<path class="st37" d="M673.5,310.5L673.5,310.5c2.8-2.2,6.8-1.7,8.9,1.1l19.7,25.1c2.2,2.8,1.7,6.8-1.1,8.9l0,0
		c-2.8,2.2-6.8,1.7-8.9-1.1l-19.7-25.1C670.3,316.7,670.7,312.7,673.5,310.5z"/>
	<path class="st38" d="M756.6,310l-7.7-9.8l6.6-5.2c2-1.6,1.6-4.9-0.8-6.5l-28.6-17.9c-3-1.9-6.4,0.7-5.2,4.1l10.5,32.1
		c0.9,2.7,4,3.9,6.1,2.3l5.7-4.5l7.7,9.8c1.2,1.6,3.6,1.9,5.2,0.6C757.6,313.9,757.9,311.6,756.6,310L756.6,310z"/>
	<path class="st39" d="M756.1,307.2l-7.7-9.8l6.6-5.2c2-1.6,1.6-4.9-0.8-6.5l-28.6-17.9c-3-1.9-6.4,0.7-5.2,4.1l10.5,32.1
		c0.9,2.7,4,3.9,6.1,2.3l5.7-4.5l7.7,9.8c1.2,1.6,3.6,1.9,5.2,0.6C757,311.2,757.3,308.8,756.1,307.2L756.1,307.2z"/>
</g>
<g id="terminale">
	<text transform="matrix(1 0 0 1 612.7903 186.0132)" class="st24 st40 st41">~Echo  </text>
	<text transform="matrix(1 0 0 1 612.7903 230.9976)" class="st24 st40 st41">$Ciao</text>
</g>
</svg>
