<?xml version="1.0" encoding="utf-8"?>
<!-- Generator: Adobe Illustrator 27.6.1, SVG Export Plug-In . SVG Version: 6.00 Build 0)  -->
<svg version="1.1" id="Livello_1" xmlns="http://www.w3.org/2000/svg" xmlns:xlink="http://www.w3.org/1999/xlink" x="0px" y="0px"
	 viewBox="0 0 296.3 475.4" style="enable-background:new 0 0 296.3 475.4;" xml:space="preserve">
<style type="text/css">
	.st0{display:none;fill:#FFFFFF;}
	.st1{fill:#925743;}
	.st2{fill:#F2997B;}
	.st3{fill:#DB765F;}
	.st4{fill:#C4626B;}
	.st5{fill:#E98E74;}
	.st6{fill:#D57763;}
	.st7{fill:#432918;}
	.st8{fill:none;stroke:#3C3C3B;stroke-width:4;stroke-miterlimit:10;}
	.st9{fill:#E5D5D2;}
	.st10{fill:#E27A61;}
	.st11{display:none;fill:#B5755E;}
	.st12{fill:#B5755E;}
	.st13{fill:none;stroke:#94604C;stroke-width:2;stroke-miterlimit:10;}
	.st14{fill:#753F2E;}
	.st15{fill:#FFFFFF;}
</style>
<polyline class="st0" points="62.7,407.4 -67.2,488.4 366.2,488.4 234.9,408.1 "/>
<g id="Livello_1_00000150089761606955742840000007738493678353836470_">
	<path class="st1" d="M153.5,436.2l14.1-34.3c-7.5,1.9-26.6,6.2-47,0.1c-22.2-6.6-35.3-20.4-40.3-26.2c-3.1,9.6-6.1,19.3-9.2,29
		c4.7,6,16.8,19.9,37.7,27.6C128.7,439.6,146,437.5,153.5,436.2L153.5,436.2z"/>
	<path class="st1" d="M143,436.1l-14.1-34.3c7.4,1.9,26.6,6.2,47,0.1c22.2-6.6,35.3-20.4,40.3-26.2c3.1,9.6,6.1,19.3,9.2,29
		c-4.7,6-16.8,19.9-37.7,27.6C167.8,439.6,150.6,437.5,143,436.1L143,436.1z"/>
	<path class="st2" d="M147.3,215.4L147.3,215.4c30.5,0,55.2,24.7,55.2,55.2v131.1c0,30.5-24.7,55.2-55.2,55.2l0,0
		c-30.5,0-55.2-24.7-55.2-55.2V270.6C92.1,240.2,116.8,215.4,147.3,215.4z"/>
	<path class="st3" d="M147.3,214L147.3,214c-30.5,0-55.2,24.7-55.2,55.2v71.4c14.7,7.7,26.9,20,45.1,22.8h18
		c16.7-2.9,32.5-16.2,47.4-24.1v-70.2C202.5,238.7,177.7,214,147.3,214L147.3,214z"/>
	<path class="st4" d="M42.6,206.3h211.3c15.3,0,27.7,12.4,27.7,27.7l0,0c0,15.3-12.4,27.7-27.7,27.7H42.6
		c-15.3,0-27.7-12.4-27.7-27.7l0,0C14.9,218.7,27.3,206.3,42.6,206.3z"/>
	<path class="st5" d="M124.5,56.4h47.6c48.6,0,88.1,39.4,88.1,88.1v79.8c0,58.6-47.5,106.1-106.1,106.1h-11.5
		c-58.6,0-106.1-47.5-106.1-106.1v-79.8C36.4,95.9,75.9,56.4,124.5,56.4L124.5,56.4z"/>
	<path class="st2" d="M128.5,56.4h39.3c48.6,0,88,39.4,88,88.1v63c0,58.6-47.5,106.1-106.1,106.1h-3.1C88,313.6,40.5,266,40.5,207.5
		v-63C40.5,95.9,79.9,56.4,128.5,56.4L128.5,56.4z"/>
	<path class="st6" d="M50.1,150.4l43.6-2.1c51.5-2.5,90.7-58.3,87.6-124.7l-0.1-2.7c-0.4-8.8-6.3-15.7-13.1-15.3l-36.6,1.7
		C83.6,9.6,24.8,62.6,27.7,124.3l0,0C28.5,139.3,38.5,150.9,50.1,150.4z"/>
	<path class="st6" d="M256.5,131.6L256.5,131.6c5.8,0.9,11.2-3.1,12-8.9l1.1-7.6c6.6-44.7-24.2-86.3-68.9-93l-16.1-2.4
		c-4.4-0.7-8.6,2.4-9.2,6.8l-3.2,21.2C166.6,86.3,214.9,122.8,256.5,131.6z"/>
	<path class="st7" d="M42.8,138.8l45.8-2.2c54.1-2.6,95.6-56,92.6-119.4l-0.1-2.6c-0.4-8.4-6.6-14.9-13.7-14.6l-38.2,1.8
		C78.8,4.2,16.8,55.1,19.6,114l0,0C20.2,128.3,30.7,139.4,42.8,138.8L42.8,138.8z"/>
	<path class="st7" d="M253.3,123.4L264,125c5.8,0.9,11.2-3.1,12-8.9l0,0c7.3-48.9-26.5-94.4-75.4-101.7l-12.9-1.9
		c-4.4-0.7-8.6,2.4-9.2,6.8l-3.2,21.2C169.6,79,215.5,112,253.3,123.4L253.3,123.4z"/>
	<path class="st6" d="M180.2,146.5h33.5c4.9,0,8.9,4,8.9,8.9l0,0c0,4.9-4,8.9-8.9,8.9h-33.5c-4.9,0-8.9-4-8.9-8.9l0,0
		C171.3,150.5,175.3,146.5,180.2,146.5z"/>
	<path class="st6" d="M77.8,151.7h33.5c4.9,0,8.9,4,8.9,8.9l0,0c0,4.9-4,8.9-8.9,8.9H77.8c-4.9,0-8.9-4-8.9-8.9l0,0
		C68.9,155.7,72.9,151.7,77.8,151.7z"/>
	<path class="st7" d="M180.8,136.1h33.5c4.9,0,8.9,4,8.9,8.9l0,0c0,4.9-4,8.9-8.9,8.9h-33.5c-4.9,0-8.9-4-8.9-8.9l0,0
		C171.8,140.1,175.8,136.1,180.8,136.1z"/>
	<circle class="st7" cx="103.1" cy="180.1" r="5.5"/>
	<path class="st7" d="M77.8,141.3h33.5c4.9,0,8.9,4,8.9,8.9l0,0c0,4.9-4,8.9-8.9,8.9H77.8c-4.9,0-8.9-4-8.9-8.9l0,0
		C68.9,145.3,72.9,141.3,77.8,141.3z"/>
	<path class="st8" d="M244.4,173.3c11.6,21.5-1.6,50.1-20.7,59.7c-1.3,0.7-8.3,4.1-18,3.8c-20.7-0.7-40.7-17.9-44.2-39.3
		c-0.5-3-2.8-17,5.9-29.3c11.1-15.7,30.9-16,35.2-16.1C205,152,232.9,152,244.4,173.3L244.4,173.3z"/>
	<path class="st8" d="M49.8,171.5c-11.6,21.5,1.6,50.1,20.7,59.7c1.3,0.7,8.3,4.1,18,3.8c20.7-0.7,40.7-17.9,44.2-39.3
		c0.5-3,2.8-17-5.9-29.3c-11.1-15.7-30.9-16-35.2-16.1C89.1,150.2,61.2,150.2,49.8,171.5L49.8,171.5z"/>
	<path class="st7" d="M262.7,168.9L262.7,168.9c-4.7,0-8.5-3.8-8.5-8.5v-48.6c0-4.7,3.8-8.5,8.5-8.5l0,0c4.7,0,8.5,3.8,8.5,8.5v48.6
		C271.2,165,267.4,168.9,262.7,168.9z"/>
	<path class="st7" d="M35.7,169.4L35.7,169.4c-5.5,0-10-4.5-10-10v-46.7c0-5.5,4.5-10,10-10l0,0c5.5,0,10,4.5,10,10v46.7
		C45.7,164.9,41.2,169.4,35.7,169.4z"/>
	<path class="st8" d="M161.5,183.1c-0.6-1-1.7-2.5-3.9-3.8c-5.2-3.2-13.5-4.1-19.2-1c-1.1,0.6-4.1,2.4-5.4,5.2"/>
	<circle class="st7" cx="192.1" cy="180.1" r="5.5"/>
	<path class="st9" d="M187,261.6c3.1,7-16.6,29.8-39.8,29.8s-42.9-22.9-39.8-29.8c1.6-3.7,9-1.4,39-1.3
		C177.6,260.3,185.3,257.8,187,261.6z"/>
	<path class="st10" d="M167.1,234.5c0,3.2-1.3,6.1-3.4,8.2c-2.1,2.1-5,3.4-8.2,3.4h-15.9c-6.6,0-12.3-5.4-12.2-12
		c0.1-3.1,1.4-5.9,3.4-7.9c0.5-0.5,1.1-1,1.6-1.4c1.8-1.2,3.4-2.8,4.4-4.7c2-3.6,5.9-6.1,10.4-6.1s8.3,2.5,10.4,6.1
		c1.1,2,2.7,3.5,4.5,4.8C165.1,227.1,167.1,230.5,167.1,234.5L167.1,234.5z"/>
</g>
<g id="Livello_4">
	<g>
		<path class="st11" d="M270.9,571.5c-31.8,17.3-68.3,27.2-106.9,27.2c-38.7,0-75.2-9.9-107-27.2H3.9V617h320.7v-45.5H270.9z"/>
		<path class="st12" d="M224.3,411.5l-16,29.5c-1.7,3.1-5.2,4.8-8.8,4.2l-48.5-8.9c-1-0.2-2-0.2-2.9,0l-50.6,8.9
			c-3.5,0.6-7-1.1-8.7-4.2l-16.1-29.5c-2.3-4.2-7.7-5.6-11.8-3L3.8,445.2c-2.4,1.5-3.8,4.2-3.8,7V468c0,4.6,3.7,8.3,8.3,8.3h32.6
			h213.8H288c4.6,0,8.3-3.7,8.3-8.3v-15.9c0-2.8-1.4-5.4-3.8-7l-56.4-36.7C232.1,405.8,226.6,407.2,224.3,411.5z"/>
	</g>
	<path class="st1" d="M172.7,472l-24-36c7.6-1.4,23.5,5.2,39.5-8.8c17.4-15.2,23.6-33.3,25.6-40.6c6.8,7.5,13.1,16.2,21.1,21.5
		c-1.7,7.4-7.5,26-23.3,41.7C196.6,464.8,180.1,470.1,172.7,472L172.7,472z"/>
	<path class="st1" d="M120.6,472l29.5-36c-7.6-1.4-29,5.2-45-8.8c-17.4-15.2-19.3-26-21.4-33.4c-6.8,7.5-16.3,10-24.5,16
		c1.7,7.4,6.7,24.2,22.5,40C96.6,464.8,113.1,470.1,120.6,472z"/>
	<path class="st12" d="M121.6,461.2l27.2-25.2c-7.6-1.4-26.7-5.5-42.7-19.5c-17.4-15.2-23.6-33.3-25.6-40.6
		c-6.8,7.5-13.6,15-20.4,22.5c1.7,7.4,6.9,25.1,22.7,40.8C97.6,454,114.1,459.3,121.6,461.2L121.6,461.2z"/>
	<path class="st12" d="M175,461.2L148.7,436c7.6-1.4,25.8-5.5,41.8-19.5c17.4-15.2,23.6-33.3,25.6-40.6c6.8,7.5,13.6,15,20.5,22.5
		c-1.7,7.4-6.9,25.1-22.7,40.8C198.9,454,182.4,459.3,175,461.2L175,461.2z"/>
	<line class="st13" x1="150.2" y1="448.3" x2="150.2" y2="475.4"/>
	<circle class="st14" cx="147.1" cy="451.3" r="5.6"/>
</g>
<path class="st15" d="M59.2,409.8"/>
<path class="st15" d="M104.7,476.3"/>
</svg>
