<?xml version="1.0" encoding="utf-8"?>
<!-- Generator: Adobe Illustrator 27.6.1, SVG Export Plug-In . SVG Version: 6.00 Build 0)  -->
<svg version="1.1" id="Livello_1" xmlns="http://www.w3.org/2000/svg" xmlns:xlink="http://www.w3.org/1999/xlink" x="0px" y="0px"
	 viewBox="0 0 447.1 512.3" style="enable-background:new 0 0 447.1 512.3;" xml:space="preserve">
<style type="text/css">
	.st0{fill:#AD746D;}
	.st1{fill:#FDE9E9;}
	.st2{fill:#925743;}
	.st3{fill:#F2997B;}
	.st4{fill:#DB765F;}
	.st5{fill:#C4626B;}
	.st6{fill:#E98E74;}
	.st7{fill:#D57763;}
	.st8{fill:#432918;}
	.st9{fill:none;stroke:#3C3C3B;stroke-width:4;stroke-miterlimit:10;}
	.st10{fill:#E5D5D2;}
	.st11{fill:#E27A61;}
	.st12{fill:#B5755E;}
	.st13{fill:none;stroke:#94604C;stroke-width:2;stroke-miterlimit:10;}
	.st14{fill:#753F2E;}
</style>
<g id="Livello_5">
	<circle class="st0" cx="223.6" cy="288.8" r="223.6"/>
	<circle class="st1" cx="223.6" cy="279.9" r="223.6"/>
</g>
<g id="Livello_1_00000150089761606955742840000007738493678353836470_">
	<path class="st2" d="M230,436.2l14.1-34.3c-7.5,1.9-26.6,6.2-47,0.1c-22.2-6.6-35.3-20.4-40.3-26.2c-3.1,9.6-6.1,19.3-9.2,29
		c4.7,6,16.8,19.9,37.7,27.6C205.2,439.6,222.5,437.5,230,436.2L230,436.2z"/>
	<path class="st2" d="M219.5,436.1l-14.1-34.3c7.4,1.9,26.6,6.2,47,0.1c22.2-6.6,35.3-20.4,40.3-26.2c3.1,9.6,6.1,19.3,9.2,29
		c-4.7,6-16.8,19.9-37.7,27.6C244.3,439.6,227.1,437.5,219.5,436.1L219.5,436.1z"/>
	<path class="st3" d="M223.8,215.4L223.8,215.4c30.5,0,55.2,24.7,55.2,55.2v131.1c0,30.5-24.7,55.2-55.2,55.2l0,0
		c-30.5,0-55.2-24.7-55.2-55.2V270.6C168.6,240.2,193.3,215.4,223.8,215.4z"/>
	<path class="st4" d="M223.8,214L223.8,214c-30.5,0-55.2,24.7-55.2,55.2v71.4c14.7,7.7,26.9,20,45.1,22.8h18
		c16.7-2.9,32.5-16.2,47.4-24.1v-70.2C279,238.7,254.2,214,223.8,214L223.8,214z"/>
	<path class="st5" d="M119.1,206.3h211.3c15.3,0,27.7,12.4,27.7,27.7l0,0c0,15.3-12.4,27.7-27.7,27.7H119.1
		c-15.3,0-27.7-12.4-27.7-27.7l0,0C91.4,218.7,103.8,206.3,119.1,206.3z"/>
	<path class="st6" d="M201,56.4h47.6c48.6,0,88.1,39.4,88.1,88.1v79.8c0,58.6-47.5,106.1-106.1,106.1h-11.5
		c-58.6,0-106.1-47.5-106.1-106.1v-79.8C112.9,95.9,152.4,56.4,201,56.4L201,56.4z"/>
	<path class="st3" d="M205,56.4h39.3c48.6,0,88,39.4,88,88.1v63c0,58.6-47.5,106.1-106.1,106.1h-3.1C164.5,313.6,117,266,117,207.5
		v-63C117,95.9,156.4,56.4,205,56.4L205,56.4z"/>
	<path class="st7" d="M126.6,150.4l43.6-2.1c51.5-2.5,90.7-58.3,87.6-124.7l-0.1-2.7c-0.4-8.8-6.3-15.7-13.1-15.3L208,7.3
		c-47.9,2.3-106.7,55.3-103.8,117l0,0C105,139.3,115,150.9,126.6,150.4z"/>
	<path class="st7" d="M333,131.6L333,131.6c5.8,0.9,11.2-3.1,12-8.9l1.1-7.6c6.6-44.7-24.2-86.3-68.9-93l-16.1-2.4
		c-4.4-0.7-8.6,2.4-9.2,6.8l-3.2,21.2C243.1,86.3,291.4,122.8,333,131.6z"/>
	<path class="st8" d="M119.3,138.8l45.8-2.2c54.1-2.6,95.6-56,92.6-119.4l-0.1-2.6C257.2,6.2,251-0.3,243.9,0l-38.2,1.8
		C155.3,4.2,93.3,55.1,96.1,114l0,0C96.7,128.3,107.2,139.4,119.3,138.8L119.3,138.8z"/>
	<path class="st8" d="M329.8,123.4l10.7,1.6c5.8,0.9,11.2-3.1,12-8.9l0,0c7.3-48.9-26.5-94.4-75.4-101.7l-12.9-1.9
		c-4.4-0.7-8.6,2.4-9.2,6.8l-3.2,21.2C246.1,79,292,112,329.8,123.4L329.8,123.4z"/>
	<path class="st7" d="M256.7,146.5h33.5c4.9,0,8.9,4,8.9,8.9l0,0c0,4.9-4,8.9-8.9,8.9h-33.5c-4.9,0-8.9-4-8.9-8.9l0,0
		C247.8,150.5,251.8,146.5,256.7,146.5z"/>
	<path class="st7" d="M154.3,151.7h33.5c4.9,0,8.9,4,8.9,8.9l0,0c0,4.9-4,8.9-8.9,8.9h-33.5c-4.9,0-8.9-4-8.9-8.9l0,0
		C145.4,155.7,149.4,151.7,154.3,151.7z"/>
	<path class="st8" d="M257.3,136.1h33.5c4.9,0,8.9,4,8.9,8.9l0,0c0,4.9-4,8.9-8.9,8.9h-33.5c-4.9,0-8.9-4-8.9-8.9l0,0
		C248.3,140.1,252.3,136.1,257.3,136.1z"/>
	<circle class="st8" cx="179.6" cy="180.1" r="5.5"/>
	<path class="st8" d="M154.3,141.3h33.5c4.9,0,8.9,4,8.9,8.9l0,0c0,4.9-4,8.9-8.9,8.9h-33.5c-4.9,0-8.9-4-8.9-8.9l0,0
		C145.4,145.3,149.4,141.3,154.3,141.3z"/>
	<path class="st9" d="M320.9,173.3c11.6,21.5-1.6,50.1-20.7,59.7c-1.3,0.7-8.3,4.1-18,3.8c-20.7-0.7-40.7-17.9-44.2-39.3
		c-0.5-3-2.8-17,5.9-29.3c11.1-15.7,30.9-16,35.2-16.1C281.5,152,309.4,152,320.9,173.3L320.9,173.3z"/>
	<path class="st9" d="M126.3,171.5c-11.6,21.5,1.6,50.1,20.7,59.7c1.3,0.7,8.3,4.1,18,3.8c20.7-0.7,40.7-17.9,44.2-39.3
		c0.5-3,2.8-17-5.9-29.3c-11.1-15.7-30.9-16-35.2-16.1C165.6,150.2,137.7,150.2,126.3,171.5L126.3,171.5z"/>
	<path class="st8" d="M339.2,168.9L339.2,168.9c-4.7,0-8.5-3.8-8.5-8.5v-48.6c0-4.7,3.8-8.5,8.5-8.5l0,0c4.7,0,8.5,3.8,8.5,8.5v48.6
		C347.7,165,343.9,168.9,339.2,168.9z"/>
	<path class="st8" d="M112.2,169.4L112.2,169.4c-5.5,0-10-4.5-10-10v-46.7c0-5.5,4.5-10,10-10l0,0c5.5,0,10,4.5,10,10v46.7
		C122.2,164.9,117.7,169.4,112.2,169.4z"/>
	<path class="st9" d="M238,183.1c-0.6-1-1.7-2.5-3.9-3.8c-5.2-3.2-13.5-4.1-19.2-1c-1.1,0.6-4.1,2.4-5.4,5.2"/>
	<circle class="st8" cx="268.6" cy="180.1" r="5.5"/>
	<path class="st10" d="M263.5,261.6c3.1,7-16.6,29.8-39.8,29.8s-42.9-22.9-39.8-29.8c1.6-3.7,9-1.4,39-1.3
		C254.1,260.3,261.8,257.8,263.5,261.6z"/>
	<path class="st11" d="M243.6,234.5c0,3.2-1.3,6.1-3.4,8.2c-2.1,2.1-5,3.4-8.2,3.4h-15.9c-6.6,0-12.3-5.4-12.2-12
		c0.1-3.1,1.4-5.9,3.4-7.9c0.5-0.5,1.1-1,1.6-1.4c1.8-1.2,3.4-2.8,4.4-4.7c2-3.6,5.9-6.1,10.4-6.1s8.3,2.5,10.4,6.1
		c1.1,2,2.7,3.5,4.5,4.8C241.6,227.1,243.6,230.5,243.6,234.5L243.6,234.5z"/>
</g>
<g id="Livello_4">
	<path class="st12" d="M304.3,403.6l-23.2,42.6L225.2,436l-57.9,10.2l-23.2-42.6l-68.4,44c39.4,34.8,91.2,55.9,147.9,55.9
		s108.9-21.3,148.4-56.4L304.3,403.6L304.3,403.6z"/>
	<path class="st2" d="M249.2,472l-24-36c7.6-1.4,23.5,5.2,39.5-8.8c17.4-15.2,23.6-33.3,25.6-40.6c6.8,7.5,13.1,16.2,21.1,21.5
		c-1.7,7.4-7.5,26-23.3,41.7C273.1,464.8,256.6,470.1,249.2,472L249.2,472z"/>
	<path class="st2" d="M197.1,472l29.5-36c-7.6-1.4-29,5.2-45-8.8c-17.4-15.2-19.3-26-21.4-33.4c-6.8,7.5-16.3,10-24.5,16
		c1.7,7.4,6.7,24.2,22.5,40C173.1,464.8,189.6,470.1,197.1,472z"/>
	<path class="st12" d="M198.1,461.2l27.2-25.2c-7.6-1.4-26.7-5.5-42.7-19.5c-17.4-15.2-23.6-33.3-25.6-40.6
		c-6.8,7.5-13.6,15-20.4,22.5c1.7,7.4,6.9,25.1,22.7,40.8C174.1,454,190.6,459.3,198.1,461.2L198.1,461.2z"/>
	<path class="st12" d="M251.5,461.2L225.2,436c7.6-1.4,25.8-5.5,41.8-19.5c17.4-15.2,23.6-33.3,25.6-40.6c6.8,7.5,13.6,15,20.5,22.5
		c-1.7,7.4-6.9,25.1-22.7,40.8C275.4,454,258.9,459.3,251.5,461.2L251.5,461.2z"/>
	<line class="st13" x1="226.7" y1="448.3" x2="226.7" y2="488.4"/>
	<circle class="st14" cx="223.6" cy="451.3" r="5.6"/>
</g>
</svg>
